<?xml version="1.0" encoding="UTF-8"?><svg xmlns="http://www.w3.org/2000/svg" viewBox="0 0 1600 1000"><defs><linearGradient id="g" x1="0" y1="0" x2="1" y2="1"><stop stop-color="#f6f7fb"/><stop offset="1" stop-color="#dce1ea"/></linearGradient><filter id="s"><feDropShadow dx="0" dy="22" stdDeviation="20" flood-opacity=".16"/></filter></defs><rect width="1600" height="1000" fill="url(#g)"/><g filter="url(#s)" transform="translate(120 170)"><path d="M70 510L530 330l680 80-430 240z" fill="#c9ced8"/><path d="M530 330l680 80v90l-680-72z" fill="#aeb5c2"/><path d="M70 510l460-180v98L70 610z" fill="#e8eaf0"/><g fill="#202738"><rect x="180" y="430" width="100" height="28" transform="skewY(-8)"/><rect x="330" y="430" width="100" height="28" transform="skewY(-8)"/><rect x="480" y="430" width="100" height="28" transform="skewY(-8)"/><rect x="630" y="430" width="100" height="28" transform="skewY(-8)"/><rect x="780" y="430" width="100" height="28" transform="skewY(-8)"/><rect x="930" y="430" width="100" height="28" transform="skewY(-8)"/><rect x="180" y="488" width="100" height="28" transform="skewY(-8)"/><rect x="330" y="488" width="100" height="28" transform="skewY(-8)"/><rect x="480" y="488" width="100" height="28" transform="skewY(-8)"/><rect x="630" y="488" width="100" height="28" transform="skewY(-8)"/><rect x="780" y="488" width="100" height="28" transform="skewY(-8)"/><rect x="930" y="488" width="100" height="28" transform="skewY(-8)"/><rect x="180" y="546" width="100" height="28" transform="skewY(-8)"/><rect x="330" y="546" width="100" height="28" transform="skewY(-8)"/><rect x="480" y="546" width="100" height="28" transform="skewY(-8)"/><rect x="630" y="546" width="100" height="28" transform="skewY(-8)"/><rect x="780" y="546" width="100" height="28" transform="skewY(-8)"/><rect x="930" y="546" width="100" height="28" transform="skewY(-8)"/></g><g stroke="#8e96a6" stroke-width="8"><path d="M160 440v-210m0 0l-70 80m70-80l70 80"/><path d="M420 440v-210m0 0l-70 80m70-80l70 80"/><path d="M680 440v-210m0 0l-70 80m70-80l70 80"/><path d="M940 440v-210m0 0l-70 80m70-80l70 80"/><path d="M1200 440v-210m0 0l-70 80m70-80l70 80"/></g></g><path d="M0 850h1600" stroke="#aeb4c0"/><text x="90" y="110" font-family="monospace" font-size="18" letter-spacing="5" fill="#232a3b">NORTH ARRAY / MASTER SPATIAL PLATE</text></svg>